# xmcd
#
# Track frame offsets:
#	150
#	13134
#	26148
#	38854
#	51859
#	64425
#	77194
#	89899
#	101837
#	114726
#	127141
#	139988
#	152666
#	164346
#	176697
#	189938
#	203231
#	215329
#	228735
#	241367
#	252980
#	265870
#
# Disc length: 3713 seconds
#
# Revision: 0
# Processed by: cddbd v1.5.2PL0 Copyright (c) Steve Scherf et al.
# Submitted via: dBpowerAMP V4.0
#
DISCID=510e7f16
DTITLE=Hank Williams - BD Rock - CD1 1947-1949
DYEAR=1900
DGENRE=Country
TTITLE0=I don't care if tommorow never comes
TTITLE1=Pan american
TTITLE2=Move it on over
TTITLE3=On the banks of the old Pontchartrain
TTITLE4=Fly trouble
TTITLE5=Rootie tootie
TTITLE6=Honky tonkin'
TTITLE7=I'll be a bachelor til I die
TTITLE8=I'm a long gone daddy
TTITLE9=The blues come around
TTITLE10=Six more miles to the graveyard
TTITLE11=I saw the light
TTITLE12=A mansion on the hill
TTITLE13=Love sick blues
TTITLE14=Wedding bells
TTITLE15=Mind your own business
TTITLE16=Lost highway
TTITLE17=You're gonna change or I'm gonna leave
TTITLE18=I'm so lonesome I could cry
TTITLE19=My bucket's got a hole in it
TTITLE20=May you never be alone
TTITLE21=I hust don't like this kind of living
EXTD=
EXTT0=
EXTT1=
EXTT2=
EXTT3=
EXTT4=
EXTT5=
EXTT6=
EXTT7=
EXTT8=
EXTT9=
EXTT10=
EXTT11=
EXTT12=
EXTT13=
EXTT14=
EXTT15=
EXTT16=
EXTT17=
EXTT18=
EXTT19=
EXTT20=
EXTT21=
PLAYORDER=
